<!--?xml version="1.0" encoding="utf-8"?-->
<svg version="1.1" x="0px" y="0px" id="iconz06614333134519262900" viewBox="0 0 512 512" xmlns="http://www.w3.org/2000/svg" style="enable-background:new 0 0 512 512;" xml:space="preserve"><style type="text/css">
.baseF{fill:#FFFFFF}
.baseB{fill:#232256}
.eyeF{fill:#FFFFFF}
.eyeB{fill:#232256}
.eyeT{fill:#BDC7D6}
.hairF{fill:#FFFFFF}
.hairB{fill:#232256}
.hairU{fill:#5E7AA5}
.hairT{fill:#BDC7D6}
.noseF{fill:#FFFFFF}
.noseB{fill:#232256}
.noseU{fill:#5E7AA5}
.mayugeB{fill:#232256}
.mayugeU{fill:#5E7AA5}
.mayugeT{fill:#BDC7D6}
.mayugeF{fill:#FFFFFF}
.mouthF{fill:#FFFFFF}
.mouthB{fill:#232256}
.mouthT{fill:#BDC7D6}
.mouthU{fill:#5E7AA5}
.hatF{fill:#FFFFFF}
.hatB{fill:#232256}
.hatU{fill:#5E7AA5}
.hatT{fill:#BDC7D6}
.higeU{fill:#5E7AA5}
.higeB{fill:#232256}
.higeF{fill:#FFFFFF}
.bodyF{fill:#FFFFFF}
.bodyB{fill:#232256}
.bodyU{fill:#5E7AA5}
.bodyT{fill:#BDC7D6}
.bodyS{fill:#8DA6C9}
.bodyH{fill:#FFFFFF}
.glassF{fill:#FFFFFF}
.glassB{fill:#232256}
.glassT{fill:#BDC7D6}
.glassU{fill:#5E7AA5}
.kirakiraF{fill:#FFFFFF}
.kirakiraB{fill:#232256}
.kirakiraU{fill:#5E7AA5}
.kirakiraT{fill:#BDC7D6}
.kirakiraH{fill:#FFFFFF}
.backF{fill:#FFFFFF}
.backB{fill:#232256}
.backU{fill:#5E7AA5}
.backS{fill:#8DA6C9}
.backA{fill:#FFE38B}
.backG{fill:#EEEEEF}
.backC{fill:#19DB9F}
.backD{fill:#DBBCA1}
</style>
<g class="icosvg">
<g>
	<path class="bodyU" d="M368.753,391.225c-18.534-13.291-31.392-16.772-31.392-16.772c-11.7,65.848-151.055,65.848-162.755,0   c0,0-12.858,3.48-31.392,16.772c-37.193,26.667-94.132,80.1-94.132,135.028c0,46.139,0,126.04,0,126.04   c103.139,0,310.69,0,413.803,0c0,0,0-79.901,0-126.04C462.885,471.325,405.946,417.892,368.753,391.225z" style="fill: rgb(94, 122, 165);"></path>
	<path class="bodyB" d="M468.162,645.416c0-0.001,0-42.134,0-73.971c-0.002-37.185-3.753-66.338-12.521-91.031   c-17.803-59.261-92.53-104.337-120.321-114.567c-7.697-4.138-13.34-7.081-21.75-8.819c-10.836-2.237-25.767-2.671-57.581-3.121   c-28.28,0.394-43.249,0.797-53.807,2.436c-10.34,1.571-16.569,4.656-25.539,9.507c-28.554,10.598-102.559,55.579-120.313,114.564   c-8.77,24.692-12.521,53.844-12.523,91.03c0,31.837,0,73.97,0,73.971c0.108,6.87,10.424,6.993,10.554,0   c1.978-70.107-13.68-162.705,51.347-220.795c25.665-23.831,48.614-37.409,75.367-49.171c7.644-4.054,11.719-6.428,19.478-8.089   c9.103-1.924,23.696-2.48,55.432-2.898c28.204,0.377,42.879,0.843,52.174,2.309c9.705,1.552,13.891,3.976,22.737,8.679   c27.548,10.121,98.323,53.327,114.8,108.498c8.206,23.079,11.917,50.998,11.914,87.496c0,31.837,0,73.97,0,73.971   C457.665,652.233,468.054,652.441,468.162,645.416L468.162,645.416z" style="fill: rgb(35, 34, 86);"></path>
	<path class="bodyU" d="M347.247,442.295c0,0,56.904-21.79,46.364-67.842c-8.311-36.309-72.122-43.43-137.627-43.43   s-129.316,7.12-137.627,43.43c-10.54,46.052,46.364,67.842,46.364,67.842" style="fill: rgb(94, 122, 165);"></path>
	<path class="bodyB" d="M392.266,359.059c-25.992-33.215-94.598-32.456-136.281-33.313c-32.958,0.012-65.576,1.757-91.547,8.258   c-18.572,4.97-33.829,10.881-44.736,25.055c-11.452,15.424-9.66,39.605,0.332,54.444c7.365,11.681,18.029,19.967,26.809,25.468   c8.793,5.489,15.773,8.167,15.991,8.253c6.573,2.346,10.177-7.257,3.779-9.854v-0.001c-0.075-0.017-11.594-4.52-22.729-13.357   c-5.572-4.409-11.027-9.881-15.009-16.276c-7.758-11.822-9.445-30.185-0.637-42.471c23.263-28.851,89.751-28.212,127.747-28.966   c41.338,0.919,103.856,0.233,127.747,28.965c19.46,31.543-11.276,61.37-38.372,72.104h0c-6.436,2.593-2.741,12.226,3.775,9.855   h-0.001c0.291-0.123,12.6-4.818,25.206-14.705c6.298-4.953,12.691-11.225,17.593-19.016   C401.917,398.664,403.724,374.48,392.266,359.059z" style="fill: rgb(35, 34, 86);"></path>
	<path class="bodyB" d="M238.79,532.291c-0.149-5.912-3.321-9.717-7.368-11.438c0-28.948,0-68.526,0-68.526   c-0.108-6.905-10.433-6.961-10.553,0v68.526c-4.047,1.721-7.22,5.526-7.37,11.438c0.15,5.91,3.323,9.715,7.37,11.436v6.973   c0.108,6.904,10.433,6.961,10.553,0c0,0,0-2.614,0-6.973C235.468,542.005,238.64,538.201,238.79,532.291z" style="fill: rgb(35, 34, 86);"></path>
	<path class="bodyB" d="M299.32,532.291c-0.149-5.911-3.322-9.717-7.368-11.438c0-28.948,0-68.527,0-68.527   c-0.108-6.905-10.433-6.961-10.553,0v68.526c-4.047,1.721-7.22,5.526-7.37,11.438c0.15,5.91,3.323,9.715,7.37,11.436v6.973   c0.108,6.904,10.433,6.961,10.553,0c0,0,0-2.614,0-6.973C295.997,542.005,299.169,538.201,299.32,532.291z" style="fill: rgb(35, 34, 86);"></path>
</g>

<g>
	<path class="baseF" d="M370.823,211.357h-1.083C365.238,142.073,331.823,86.564,256,86.564s-109.237,55.509-113.74,124.793h-1.083   c-14.838-8.773-36.38,8.077-32.988,28.423c7.12,42.713,9.938,53.304,22.629,59.716c6.476,3.272,12.413,3.387,12.413,3.387h1.277   c4.228,26.866,12.675,46.638,23.503,61.72c16.545,23.046,59.074,51.94,87.989,51.94s71.445-28.894,87.989-51.94   c10.828-15.082,19.275-34.854,23.503-61.72h1.277c0,0,5.937-0.115,12.413-3.387c12.689-6.413,15.509-17.004,22.629-59.716   C407.203,219.434,385.661,202.584,370.823,211.357z" style="fill: rgb(255, 255, 255);"></path>
	<path class="baseB" d="M400.198,213.073c-2.749-2.844-5.951-5.161-9.439-6.793c-3.486-1.629-7.276-2.577-11.159-2.578   c-1.71-0.003-3.434,0.222-5.14,0.617c-1.031-11.102-2.802-21.857-5.42-32.084c-6.669-26.051-18.756-48.836-37.452-65.137   c-9.337-8.142-20.307-14.626-32.909-19.04c-12.6-4.418-26.816-6.772-42.68-6.771c-21.149-0.004-39.382,4.191-54.738,11.86   c-23.061,11.495-39.403,30.751-49.784,54.246c-7.548,17.061-12.016,36.394-13.923,56.93c-1.712-0.397-3.443-0.623-5.159-0.621   c-3.884,0.001-7.675,0.949-11.161,2.578c-5.23,2.452-9.827,6.427-13.198,11.446c-3.361,5.014-5.486,11.134-5.486,17.767   c-0.001,1.693,0.138,3.421,0.432,5.166l-0.001-0.011c3.584,21.412,6.032,34.841,9.469,44.399c1.725,4.772,3.763,8.644,6.442,11.822   c2.67,3.182,5.926,5.521,9.544,7.338c7.605,3.814,14.229,3.926,14.689,3.953c0.384,0.007,0.758-0.031,1.12-0.102   c2.368,10.737,4.358,19.607,6.421,27.314c1.962,7.323,4.003,13.631,6.538,19.479c2.532,5.846,5.566,11.212,9.404,16.555   c8.912,12.368,23.386,24.702,39.524,34.221c8.072,4.747,16.557,8.764,25.005,11.623c8.45,2.854,16.864,4.565,24.86,4.571   c7.995-0.006,16.409-1.717,24.859-4.571c12.669-4.291,25.436-11.177,36.735-19.245c11.296-8.082,21.11-17.311,27.791-26.6   c3.839-5.343,6.873-10.709,9.407-16.555c3.804-8.782,6.493-18.557,9.476-31.321c1.098-4.705,2.238-9.833,3.483-15.473   c0.363,0.071,0.737,0.11,1.123,0.103c0.459-0.027,7.083-0.139,14.688-3.953c3.616-1.817,6.873-4.157,9.543-7.338   c2.006-2.378,3.662-5.163,5.084-8.407c2.134-4.876,3.799-10.803,5.479-18.525c1.672-7.721,3.342-17.251,5.35-29.288l0.001-0.009   c0.287-1.735,0.424-3.455,0.423-5.145C409.433,226.637,405.68,218.747,400.198,213.073z M398.606,238.913   c-3.537,21.3-6.057,34.522-8.984,42.541c-1.454,4.017-2.946,6.664-4.587,8.611c-1.651,1.943-3.505,3.332-6.233,4.721   c-2.679,1.356-5.319,2.081-7.245,2.447c-0.568,0.109-1.046,0.18-1.471,0.235c1.566-7.071,3.304-14.837,5.329-23.534   c0.66-2.838-1.105-5.674-3.942-6.335c-2.838-0.661-5.675,1.104-6.335,3.942h-0.001c-6.555,28.163-10.235,47.056-14,61.099   c-1.881,7.023-3.773,12.815-6.028,18.011c-2.257,5.198-4.868,9.82-8.296,14.599c-7.635,10.678-21.253,22.452-36.3,31.279   c-7.522,4.426-15.402,8.142-23.036,10.722c-7.631,2.586-15.015,4.02-21.477,4.015c-6.463,0.005-13.847-1.429-21.478-4.015   c-11.454-3.868-23.448-10.302-33.982-17.834c-10.538-7.518-19.628-16.171-25.356-24.168c-3.427-4.778-6.037-9.401-8.295-14.599   c-3.38-7.785-5.95-16.952-8.88-29.521c-2.934-12.561-6.229-28.464-11.147-49.589c-0.661-2.838-3.498-4.603-6.336-3.942   c-2.837,0.661-4.602,3.497-3.941,6.335c2.021,8.683,3.766,16.476,5.329,23.537c-1.86-0.247-5.259-0.925-8.716-2.685   c-2.729-1.39-4.583-2.779-6.233-4.721c-1.235-1.465-2.374-3.308-3.489-5.845c-1.672-3.796-3.231-9.136-4.827-16.52   c-1.602-7.384-3.257-16.799-5.255-28.788l-0.001-0.011c-0.196-1.154-0.286-2.289-0.287-3.408c-0.007-5.8,2.494-11.167,6.28-15.086   c1.884-1.953,4.071-3.517,6.32-4.565c2.25-1.052,4.545-1.587,6.691-1.586c1.535,0.005,2.991,0.276,4.398,0.831   c-0.209,4.295-0.347,8.618-0.348,12.991c0,2.914,2.363,5.277,5.277,5.277c2.913,0,5.277-2.363,5.277-5.277H147   c0-18.842,1.993-36.867,6.183-53.224c6.291-24.557,17.48-45.262,34.164-59.799c8.352-7.277,18.098-13.049,29.464-17.036   c11.365-3.983,24.364-6.176,39.19-6.177c19.77,0.004,36.28,3.892,50.023,10.749c20.587,10.293,35.194,27.323,44.849,49.076   c9.632,21.732,14.134,48.145,14.128,76.412c0,2.914,2.362,5.277,5.277,5.277c2.913,0,5.277-2.363,5.277-5.277   c0-4.373-0.12-8.705-0.329-12.999c1.402-0.549,2.85-0.819,4.376-0.823c2.146-0.001,4.44,0.533,6.689,1.585   c3.375,1.57,6.598,4.315,8.897,7.759c2.307,3.449,3.701,7.533,3.701,11.893C398.886,236.612,398.796,237.752,398.606,238.913z" style="fill: rgb(35, 34, 86);"></path>
</g>

<g>
	<path class="higeB" d="M306.668,390.396c-8.002,4.266-22.931,5.334-28.8,1.064c-5.869-4.266-9.066-13.331-21.867-13.331
		c-12.802,0-15.998,9.066-21.867,13.331c-5.864,4.27-20.798,3.202-28.8-1.064c-8.841-4.716-0.534,15.464,8.536,17.602
		c9.066,2.133,9.066,6.398,14.93,12.263c5.869,5.869,10.134,3.202,12.802,3.202c2.667,0,3.202,6.398,14.4,6.398
		c11.198,0,11.733-6.398,14.4-6.398c2.667,0,6.933,2.667,12.802-3.202c5.864-5.864,5.864-10.13,14.934-12.263
		C307.202,405.86,315.508,385.68,306.668,390.396z" style="fill: rgb(35, 34, 86);"></path>
</g>


<g>
	<path class="hairU" d="M429.831,221.16c-9.115-4.556-26.508-32.984-29.887-56.562C391.002,102.2,340.373,49.972,295.691,40.735
		c-40.064-8.283-98.941-7.458-113.046,26.552c-22.76,10.966-48.48,34.434-57.52,65.955c-14.034,48.94-32.262,61.765-32.262,61.765
		s8.58,31.071,37.254,27.811c3.054,11.241,7.28,23.641,11.606,26.194c8.262,4.87,11.309-15.23,13.613-27.853
		c19.57-5.714,12.751-44.502,24.48-58.751c15.924-19.344,76.177-12.007,76.184-12.007c0,0,2.023,0.056,5.393,0.206
		c23.03,35.66,50.37,75.928,89.538,80.559c2.749,0.326,5.297,0.548,7.748,0.724c2.215,10.615,5.47,20.733,11.597,17.121
		c3.241-1.91,6.424-9.368,9.103-17.707c4.423-0.769,7.868-1.98,10.5-3.523C399.309,231.599,412.152,230.844,429.831,221.16z" style="fill: rgb(94, 122, 165);"></path>
	<g>
		<path class="hairB" d="M379.38,231.306c-8.227-1.104-6.586,9.094-11.339,13.247c-2.051-2.681-2.843-7.284-4.341-10.486
			c8.302-1.533,5.829-4.76-1.502-6.464c-104.911-15.607-98.203-150.323-129.115-112.425c-3.129,4.453-5.808,18.523-0.914,20.963
			c4.139-1.966,6.382-16.509,11.06-18.145c3.544,1.003,4.322,6.921,5.454,10.54c-6.274-0.333-20.168,34.823-6.129,24.26
			c-0.354-2.297,5.386-16.186,8.098-17.946c0.682,1.884,1.439,3.874,2.271,5.962c-2.227,2.248-10.671,10.587-3.708,11.759
			c5.006,0.729,3.04-2.044,6.473-5.159c17.986,42.438,57.361,83.592,99.818,87.098c-2.259,9.923,9.64,27.783,19.924,16.491
			C378.822,245.392,386.905,235.967,379.38,231.306z" style="fill: rgb(35, 34, 86);"></path>
		<path class="hairB" d="M192.911,139.175c-27.544,19.005-20.951,57.689-37.575,81.984c-9.752,2.07-5.503,16.716-11.37,23.395
			c-0.002-0.002-0.002-0.005-0.005-0.007c0,0.002,0,0.002,0,0.002c-6.57-5.541-4.298-22.955-14.817-21.291
			c-11.43-4.277-27.752-16.709-31.528-28.673c31.228-23.653,27.202-76.303,57.504-101.585c8.384-8.095,49.38-37.685,12.272-22.305
			c-44.653,24.277-48.375,83.009-74.407,121.275c-13.594,14.508,22.786,37.683,35.18,40.997
			c9.157,38.918,34.767,17.716,29.325-10.432c28.603-5.932,12.307-60.424,42.998-76.873c0.164,1.938,8.855,8.205,9.684,10.608
			c11.752,1.184,0.241-11.187-4.566-13.772c3.877-1.877,7.458-2.787,11.648-2.648c-2.358,4.891,0.403,3.164,2.96,7.784
			c1.638,3.073,1.523,3.834,1.964,5.163c0.164,1.528,6.71,1.462,6.227-0.736c0.623-1.734-3.122-10.186-5.745-11.927
			C245.502,140.035,211.518,119.694,192.911,139.175z" style="fill: rgb(35, 34, 86);"></path>
		<path class="hairB" d="M423.81,210.767c-28.917-51.705-22.012-106.605-75.893-147.949c-45.401-36.647-119.459-46.976-161.402-7.952
			c-7.425,12.218-5.133,16.826,5.13,4.458c58.397-42.23,153.403-10.463,184.793,53.02c23.459,36.286,13.038,78.888,47.367,107.18
			c-14.081,6.15-40.826,5.217-54.056-3.504c-6.361-2.21-12.525-10.849-19.158-7.043c-1.01,22.022,75.023,35.85,79.24,12.183
			C430.347,219.817,427.066,216.531,423.81,210.767z" style="fill: rgb(35, 34, 86);"></path>
		<path class="hairB" d="M257.683,73.525c-7.823,2.391-7.034,4.887,0.33,4.582c50.367,11.412,59.449,116.529,121.908,107.733
			c-55.612-20.159-58.036-52.198-89.163-94.418C281.652,81.521,272.036,71.628,257.683,73.525z" style="fill: rgb(35, 34, 86);"></path>
		<path class="hairB" d="M145.97,167.019c-2.107,7.287-10.509,14.002-10.252,20.571c21.129-5.536,23.067-49.62,34.158-65.721
			c3.652-6.741,23.416-28.772,3.272-15.532C159.637,118.009,152.936,151.457,145.97,167.019z" style="fill: rgb(35, 34, 86);"></path>
		<path class="hairB" d="M372.885,144.613c-1.027-5.36-8.766-6.652-12.277-11.055c-8.445-6.11-22.622-34.941-25.931-38.871
			c-17.48-14.735,4.38,20.749,9.204,28.666C352.345,134.525,361.016,148.789,372.885,144.613z" style="fill: rgb(35, 34, 86);"></path>
	</g>
</g>


<g>
	<path class="mouthB" d="M281.371,345.627c-3.338,3.246-16.347,5.354-26.05,5.354c-9.703,0-22.712-2.108-26.05-5.354
		c-2.753-2.677-4.397,0.956-1.912,4.206c2.486,3.25,13.575,8.073,27.962,8.073c14.387,0,25.476-4.823,27.962-8.073
		C285.768,346.583,284.124,342.95,281.371,345.627z" style="fill: rgb(35, 34, 86);"></path>
</g>


<g>
	<path class="noseF" d="M263.027,309.341c0,7.877-2.33,6.009-6.328,6.009c-3.998,0-7.242-6.387-7.242-14.264
		s3.244-14.266,7.242-14.266C260.697,286.82,263.027,301.461,263.027,309.341z" style="fill: rgb(255, 255, 255);"></path>
	<path class="noseB" d="M249.779,268.054c-0.967,6.605-2.483,21.9-2.49,33.492c0.004,3.752,0.152,7.099,0.586,9.802
		c0.225,1.359,0.5,2.555,1.003,3.705c0.259,0.577,0.577,1.155,1.087,1.734c0.5,0.567,1.264,1.158,2.263,1.427
		c1.826,0.485,3.398,0.661,4.704,0.661c2.629,0.005,4.207-0.731,4.637-0.982c1.614-0.914,2.181-2.965,1.268-4.577
		c-0.914-1.615-2.964-2.182-4.577-1.268l0.816,1.441l-0.645-1.533l-0.172,0.089l0.817,1.444l-0.645-1.533
		c-0.002-0.002-0.442,0.197-1.499,0.199c-0.711,0-1.684-0.091-2.964-0.434l-0.517,1.955l1.53-1.362
		c-0.117-0.136-0.463-0.445-1.004-0.591l-0.526,1.952l1.53-1.362l-0.649,0.577l0.736-0.466l-0.087-0.11l-0.649,0.577l0.736-0.466
		l-0.101-0.225c-0.237-0.581-0.541-2.046-0.704-3.912c-0.175-1.875-0.255-4.195-0.254-6.743
		c-0.007-11.013,1.502-26.332,2.418-32.515c0.268-1.838-1.001-3.544-2.836-3.811c-1.836-0.27-3.543,0.998-3.811,2.836
		L249.779,268.054z" style="fill: rgb(35, 34, 86);"></path>
</g>


<g>
	<g>
		<path class="eyeB" d="M207.193,266.958c-13.515,0-21.904,11.3-19.176,10.834c2.728-0.466,26.375-2.341,35.242-1.637
			C232.127,276.86,225.232,266.958,207.193,266.958z" style="fill: rgb(35, 34, 86);"></path>
		<path class="eyeB" d="M304.808,266.958c13.515,0,21.904,11.3,19.176,10.834c-2.728-0.466-26.375-2.341-35.242-1.637
			C279.874,276.86,286.769,266.958,304.808,266.958z" style="fill: rgb(35, 34, 86);"></path>
	</g>
</g>


<g>
	<g>
		<path class="mayugeB" d="M233.722,239.717c-10.403-5.377-30.893-7.222-41.68-6.11c-10.787,1.112-9.041-5.891,7.215-6.582
			c16.256-0.691,33.151,3.147,38.624,7.3C243.355,238.479,238.475,242.174,233.722,239.717z" style="fill: rgb(35, 34, 86);"></path>
		<path class="mayugeB" d="M278.278,239.717c10.403-5.377,30.893-7.222,41.68-6.11c10.787,1.112,9.041-5.891-7.215-6.582
			c-16.256-0.691-33.151,3.147-38.624,7.3C268.645,238.479,273.526,242.174,278.278,239.717z" style="fill: rgb(35, 34, 86);"></path>
	</g>
</g>


<g>
	<path class="glassB" d="M374.897,250.847c-1.428-2.979-5.002-4.235-7.98-2.807l-16.676,7.998c-0.05-0.116-0.089-0.232-0.143-0.348
		c-1.523-3.22-3.946-5.85-6.807-7.911c-4.317-3.095-9.649-5.085-15.776-6.417c-6.13-1.318-13.09-1.938-20.692-1.941
		c-13.809,0.004-24.585,3.32-32.167,8.235c-3.338,2.169-6.021,4.662-8.082,7.369c-1.492-0.649-2.945-1.123-4.266-1.421
		c-2.907-0.666-5.357-0.655-6.429-0.656c-1.072,0.001-3.521-0.009-6.428,0.656c-1.316,0.298-2.762,0.77-4.248,1.414
		c-3.233-4.24-8.057-7.948-14.384-10.721c-6.878-3.004-15.527-4.874-25.884-4.875c-10.138,0.009-19.124,1.09-26.545,3.51
		c-3.71,1.219-7.048,2.78-9.921,4.848c-2.862,2.061-5.284,4.691-6.809,7.911c-0.054,0.116-0.093,0.232-0.143,0.348l-16.677-7.998
		c-2.979-1.429-6.552-0.172-7.98,2.807c-1.429,2.979-0.172,6.552,2.807,7.98l20.107,9.643c0.108,4.004,0.655,8.474,1.866,13.129
		c2.034,7.77,5.858,16.058,12.649,22.605c3.389,3.261,7.525,6.045,12.395,7.972c4.869,1.932,10.446,3.002,16.675,3
		c10.206,0.012,18.557-2.388,25.066-6.357c4.883-2.965,8.686-6.761,11.568-10.801c4.328-6.074,6.643-12.654,7.932-18.342
		c1.283-5.7,1.538-10.527,1.54-13.309c0-0.048-0.013-0.095-0.013-0.144c0.909-0.45,1.805-0.758,2.658-0.955
		c1.545-0.348,2.814-0.359,3.77-0.357c0.956-0.001,2.227,0.009,3.771,0.357c0.853,0.197,1.748,0.505,2.658,0.955
		c0,0.048-0.013,0.095-0.013,0.144c0.002,2.474,0.204,6.559,1.148,11.443c1.426,7.295,4.491,16.482,11.517,24.145
		c3.506,3.813,8.02,7.182,13.6,9.532c5.579,2.358,12.183,3.691,19.842,3.689c8.3,0.009,15.455-1.914,21.297-5.2
		c4.384-2.455,8.007-5.644,10.923-9.178c4.377-5.311,7.192-11.367,8.948-17.245c1.589-5.343,2.282-10.515,2.406-15.08l20.114-9.647
		C375.07,257.399,376.326,253.826,374.897,250.847z M236.57,275.535c-1.14,5.954-3.671,13.029-8.572,18.315
		c-2.457,2.66-5.49,4.938-9.452,6.615c-3.963,1.671-8.899,2.745-15.188,2.748c-6.504-0.009-11.457-1.444-15.45-3.672
		c-2.992-1.679-5.464-3.839-7.547-6.357c-3.117-3.77-5.321-8.381-6.71-13.049c-1.395-4.658-1.963-9.36-1.959-13.071
		c-0.001-1.686,0.117-3.166,0.295-4.288c0.165-1.113,0.438-1.895,0.484-1.961c0.506-1.066,1.409-2.183,2.999-3.335
		c2.36-1.723,6.243-3.347,11.295-4.424c5.048-1.09,11.232-1.675,18.171-1.672c11.889-0.004,20.387,2.879,25.654,6.306
		c2.636,1.707,4.458,3.552,5.535,5.146c1.092,1.598,1.39,2.898,1.377,3.531C237.503,268.175,237.339,271.585,236.57,275.535z
		 M338.539,278.581c-1.615,6.229-4.651,12.492-9.361,16.998c-2.361,2.265-5.134,4.134-8.513,5.476
		c-3.38,1.338-7.388,2.156-12.263,2.159c-8.392-0.012-14.354-1.894-18.855-4.617c-3.374-2.054-5.971-4.632-8.044-7.53
		c-3.103-4.334-4.968-9.432-5.999-14.025c-1.038-4.581-1.248-8.638-1.246-10.673c-0.013-0.632,0.285-1.932,1.377-3.531
		c1.61-2.398,4.92-5.329,10.092-7.577c5.168-2.258,12.179-3.875,21.095-3.874c9.248-0.009,17.169,1.051,22.821,2.916
		c2.827,0.922,5.068,2.038,6.646,3.18c1.59,1.152,2.493,2.269,2.996,3.332c0.046,0.067,0.32,0.847,0.484,1.961
		c0.177,1.121,0.295,2.603,0.294,4.29C340.067,270.361,339.62,274.447,338.539,278.581z" style="fill: rgb(35, 34, 86);"></path>
</g>

</g></svg>